<?xml version="1.0" encoding="utf-8"?>
<!-- Generator: Adobe Illustrator 18.1.1, SVG Export Plug-In . SVG Version: 6.00 Build 0)  -->
<svg version="1.1" id="레이어_1" xmlns="http://www.w3.org/2000/svg" xmlns:xlink="http://www.w3.org/1999/xlink" x="0px"
	 y="0px" viewBox="0 0 400 400" enable-background="new 0 0 400 400" xml:space="preserve">
<g>
	<path fill="#FFFFFF" d="M380.3,196.4l-1.9-1.9l-44.2,44.2L304.5,99l70.1,14.9l0.6-2.6l-71.3-15.1l-15.1-71.3l-2.6,0.6L301,95.5
		L161.2,65.8l44.2-44.2l-1.9-1.9l-45.4,45.4L86.7,50l-0.6,2.6l69.7,14.8l-87.7,87.7l-15.6-75L50,80.7L66,157.3l-46.2,46.2l1.9,1.9
		l45-45l29.2,140.7l-70.4-15l-0.6,2.6l71.6,15.2l15.2,73.2l2.6-0.5l-15-72.1l139.5,29.6l-44.2,44.2l1.9,1.9l45.4-45.4l71.4,15.2
		l0.6-2.6l-69.7-14.8l88.5-88.4l14.8,69.7l2.6-0.6l-15.2-71.4L380.3,196.4z M241,331.9L98.7,301.7L68.9,158.2L159,68.1l142.7,30.3
		L331.9,241L241,331.9z"/>
	<polygon fill="#FFFFFF" points="160.7,78.9 232,150.2 113,181.1 	"/>
	<polygon fill="#FFFFFF" points="134.8,100.5 97.8,179.6 76.8,158.5 	"/>
	<polygon fill="#FFFFFF" points="180.7,78.7 246,143.9 288.3,101.5 	"/>
	<polygon fill="#28A9E0" points="235.9,164 204.3,286.1 114.5,196.3 	"/>
	<polygon fill="#FFFFFF" points="256.1,154 298.5,111.7 321.3,219.3 	"/>
	<polygon fill="#FFFFFF" points="249.7,168 321.3,239.2 218.1,287.4 	"/>
	<polygon fill="#FFFFFF" points="106.8,208.8 191.2,293.2 104.6,295.4 	"/>
	<polygon fill="#FFFFFF" points="78.7,180.7 92.8,194.8 91.6,241.6 	"/>
	<polygon fill="#FFFFFF" points="220.4,302.2 300.5,264.7 241.5,323.2 	"/>
	<polygon fill="#FFFFFF" points="158.4,308.4 205.2,307.2 219.3,321.3 	"/>
</g>
</svg>
